<?xml version="1.0" encoding="UTF-8" standalone="no"?>
<!DOCTYPE svg PUBLIC "-//W3C//DTD SVG 1.1//EN" "http://www.w3.org/Graphics/SVG/1.1/DTD/svg11.dtd">
<svg width="100%" height="100%" viewBox="0 0 800 800" version="1.1" xmlns="http://www.w3.org/2000/svg" xmlns:xlink="http://www.w3.org/1999/xlink" xml:space="preserve" xmlns:serif="http://www.serif.com/" style="fill-rule:evenodd;clip-rule:evenodd;stroke-linejoin:round;stroke-miterlimit:2;">
    <g>
        <circle cx="219.637" cy="67.783" r="67.783" style="fill:white;stroke:white;stroke-width:1px;"/>
        <path d="M620.449,419.456C625.532,420.235 630.757,419.136 634.899,416.415L649.454,406.85C650.074,406.444 650.851,406.274 651.613,406.381L661.231,407.726C664.41,408.171 667.667,407.888 670.686,406.905L707.604,394.877C715.001,392.467 719.912,386.24 719.912,379.275L719.912,343.533C719.912,335.6 713.48,329.168 705.547,329.168L431.737,328.679C419.589,328.679 408.197,331.96 398.375,337.656C406.295,342.931 413.03,349.901 418.014,358.334C421.01,363.402 423.244,368.768 424.743,374.302C426.946,373.569 429.293,373.158 431.737,373.158L441.266,373.158L441.266,417.624L431.737,417.624C428.265,417.624 424.989,416.803 422.062,415.377C416.08,429.882 405.042,441.543 391.269,448.377C402.504,456.978 416.531,462.103 431.74,462.103L485.748,462.103L485.748,461.852L502.03,461.852L552.199,445.507C555.083,444.568 557.555,442.846 559.264,440.591L571.488,424.448C572.325,423.344 573.984,422.998 575.289,423.655L586.877,429.495C590.234,431.185 594.455,430.688 597.191,428.276L609.164,417.724L620.449,419.456Z" style="fill:white;fill-rule:nonzero;stroke:white;stroke-width:1px;"/>
        <path d="M671.84,481.486C633.871,481.486 603.091,496.339 603.091,514.659L603.091,766.826C603.091,785.147 633.871,800 671.84,800C709.81,800 740.589,785.149 740.589,766.826L740.589,514.659C740.589,496.339 709.81,481.486 671.84,481.486Z" style="fill:white;fill-rule:nonzero;stroke:white;stroke-width:1px;"/>
        <path d="M370.974,359.278L261.406,331.115L220.517,213.641L280.825,303.69L305.901,310.134L305.901,212.84C305.901,183.678 285.401,160.036 260.111,160.036L178.455,160.036C153.167,160.036 132.665,183.678 132.665,212.84L132.665,470.086L127.773,587.079L62.381,745.793C54.126,765.832 63.676,788.773 83.717,797.03C88.607,799.048 93.673,800 98.652,800C114.081,800 128.712,790.843 134.955,775.694L202.981,610.585C204.724,606.354 205.716,601.848 205.907,597.275L210.208,494.513C210.459,488.505 215.402,483.767 221.414,483.767C226.118,483.767 230.323,486.703 231.942,491.119L265.168,581.702L228.97,752.617C224.48,773.82 238.031,794.649 259.234,799.142C261.976,799.723 264.708,800 267.403,800C285.55,799.997 301.848,787.339 305.759,768.875L344.297,586.914C345.825,579.698 345.288,572.197 342.748,565.268L305.901,464.809L305.901,442.504L220.323,420.507C192.134,413.263 175.847,388.485 174.167,372.444L160.242,239.452L205.391,369.173C208.813,379.001 217.066,387.253 228.138,390.099L354.692,422.627C371.35,426.91 388.26,417.561 393.744,401.638C399.99,383.511 389.432,364.022 370.974,359.278Z" style="fill:white;fill-rule:nonzero;stroke:white;stroke-width:1px;"/>
    </g>
</svg>
