<?xml version="1.0" encoding="UTF-8" standalone="no"?>
<!DOCTYPE svg PUBLIC "-//W3C//DTD SVG 1.1//EN" "http://www.w3.org/Graphics/SVG/1.1/DTD/svg11.dtd">
<svg width="100%" height="100%" viewBox="0 0 800 800" version="1.1" xmlns="http://www.w3.org/2000/svg" xmlns:xlink="http://www.w3.org/1999/xlink" xml:space="preserve" xmlns:serif="http://www.serif.com/" style="fill-rule:evenodd;clip-rule:evenodd;stroke-linejoin:round;stroke-miterlimit:2;">
    <path d="M105.151,33.732C170.662,44.014 239.19,74.913 290.869,116.534C325.127,105.802 361.86,99.998 400,99.998C438.397,99.998 475.367,105.88 509.82,116.75C562.733,75.829 628.09,43.779 694.513,33.78C708.653,31.697 723.36,38.845 729.817,51.758C755.73,112.986 756.61,185.996 740.673,249.749L740.427,250.738C736.157,267.845 730.637,289.956 712.92,297.394C726.09,329.772 733.333,364.887 733.333,401.753C733.333,494.167 695.393,589.247 661.373,674.493L657.93,683.12C637.273,734.953 591.053,770.653 537.5,780.6L461.83,794.657C438.497,798.99 415.207,790.573 400,773.607C384.793,790.573 361.507,798.99 338.173,794.657L262.502,780.6C208.951,770.653 162.73,734.953 142.071,683.12L138.63,674.493C104.611,589.247 66.668,494.167 66.668,401.753C66.668,364.887 73.912,329.772 87.083,297.394C69.349,289.948 63.972,268.375 59.697,251.219L59.33,249.749C44.104,188.842 41.177,109.893 70.187,51.758C76.609,38.914 90.969,31.529 105.151,33.732ZM219.493,148.017C181.839,170.022 149.158,198.84 123.791,232.711C113.857,192.154 113.745,147.051 122.499,106.251C156.281,116.01 189.339,129.845 219.493,148.017ZM676.21,232.711C651.01,199.061 618.59,170.398 581.247,148.449C611.213,130.017 643.477,115.25 677.41,105.818C686.28,146.733 686.177,192.023 676.21,232.711ZM295.121,185.565C327.226,173.428 362.657,166.665 400,166.665C437.347,166.665 472.777,173.428 504.88,185.565C601.847,222.22 666.667,306.607 666.667,401.753C666.667,482.253 632.97,566.253 602.877,641.267L602.873,641.273C600.557,647.05 598.26,652.773 596.003,658.437C584.303,687.793 557.7,709.04 525.323,715.053L449.653,729.11L430.4,686.32C425.017,674.357 413.117,666.663 400,666.663C386.883,666.663 374.987,674.357 369.603,686.32L350.347,729.11L274.678,715.053C242.303,709.04 215.7,687.793 204,658.437C201.746,652.78 199.452,647.063 197.138,641.293L197.132,641.28L197.127,641.267C167.034,566.253 133.335,482.253 133.335,401.753C133.335,306.607 198.157,222.22 295.121,185.565ZM350,533.33C337.373,533.33 325.832,540.463 320.186,551.757C314.539,563.05 315.758,576.563 323.333,586.663L373.333,653.33C379.63,661.723 389.507,666.663 400,666.663C410.493,666.663 420.37,661.723 426.667,653.33L476.667,586.663C484.243,576.563 485.46,563.05 479.813,551.757C474.167,540.463 462.627,533.33 450,533.33L350,533.33ZM320.711,370.707C320.711,398.323 298.326,420.707 270.711,420.707C243.097,420.707 220.711,398.323 220.711,370.707C220.711,343.093 243.097,320.708 270.711,320.708C298.326,320.708 320.711,343.093 320.711,370.707ZM533.333,416.663C560.947,416.663 583.333,394.28 583.333,366.663C583.333,339.05 560.947,316.665 533.333,316.665C505.72,316.665 483.333,339.05 483.333,366.663C483.333,394.28 505.72,416.663 533.333,416.663Z" style="fill:white;stroke:white;stroke-width:1px;"/>
</svg>
