<?xml version="1.0" encoding="UTF-8" standalone="no"?>
<!DOCTYPE svg PUBLIC "-//W3C//DTD SVG 1.1//EN" "http://www.w3.org/Graphics/SVG/1.1/DTD/svg11.dtd">
<svg width="100%" height="100%" viewBox="0 0 800 800" version="1.1" xmlns="http://www.w3.org/2000/svg" xmlns:xlink="http://www.w3.org/1999/xlink" xml:space="preserve" xmlns:serif="http://www.serif.com/" style="fill-rule:evenodd;clip-rule:evenodd;stroke-linejoin:round;stroke-miterlimit:2;">
    <g transform="matrix(1,0,0,1,0.025,-7.1375)">
        <path d="M159.2,391.775L92.875,391.775C91.175,391.775 89.775,393.15 89.775,394.875L89.775,427.275C89.775,429 91.15,430.375 92.875,430.375L118.75,430.375L118.75,470.675C118.75,470.675 112.95,472.625 96.9,472.625C77.95,472.625 51.475,465.675 51.475,407.525C51.475,349.325 79.025,341.675 104.9,341.675C127.3,341.675 136.95,345.6 143.075,347.525C145,348.125 146.75,346.2 146.75,344.475L154.15,313.15C154.15,312.35 153.875,311.375 152.975,310.725C150.475,308.975 135.275,300.45 96.85,300.45C52.575,300.45 7.15,319.275 7.15,409.825C7.15,500.375 59.125,513.825 102.95,513.825C139.225,513.825 161.25,498.325 161.25,498.325C162.15,497.825 162.25,496.575 162.25,496L162.25,394.875C162.225,393.15 160.85,391.775 159.15,391.775L159.2,391.775ZM494.575,308.175L457.25,308.175C455.525,308.175 454.15,309.575 454.15,311.275L454.15,383.425L395.95,383.425L395.95,311.275C395.95,309.55 394.55,308.175 392.875,308.175L355.525,308.175C353.85,308.175 352.475,309.575 352.475,311.275L352.475,506.625C352.475,508.35 353.85,509.75 355.525,509.75L392.875,509.75C394.575,509.75 395.95,508.35 395.95,506.625L395.95,423.075L454.15,423.075L454.025,506.625C454.025,508.35 455.4,509.725 457.075,509.725L494.425,509.725C496.15,509.725 497.475,508.325 497.475,506.625L497.6,311.25C497.625,309.525 496.225,308.15 494.55,308.15L494.575,308.175ZM203.8,312.6C190.5,312.6 179.725,323.475 179.725,336.9C179.725,350.325 190.5,361.225 203.8,361.225C217.1,361.225 227.875,350.35 227.875,336.9C227.875,323.475 217.1,312.6 203.8,312.6ZM225.225,375.275C225.225,373.575 223.85,372.15 222.175,372.15L184.95,372.15C183.2,372.15 181.725,373.9 181.725,375.625L181.725,504.825C181.725,508.6 184.075,509.75 187.15,509.75L220.7,509.75C224.35,509.75 225.325,507.95 225.325,504.75C225.3,497.825 225.3,470.7 225.3,465.45C225.275,460.45 225.275,375.275 225.275,375.275L225.225,375.275ZM639.1,372.45L602.05,372.45C600.35,372.45 599,373.85 599,375.575L599,471.35C599,471.35 589.6,478.275 576.2,478.275C562.85,478.275 559.275,472.225 559.275,459.1L559.275,375.55C559.275,373.825 557.875,372.425 556.2,372.425L518.625,372.425C516.9,372.425 515.55,373.825 515.55,375.55L515.55,465.425C515.55,504.3 537.2,513.8 566.975,513.8C591.4,513.8 611.15,500.3 611.15,500.3C611.15,500.3 612.075,507.4 612.525,508.225C612.925,509.075 614.025,509.925 615.225,509.925L639.025,509.925C640.725,509.925 642.1,508.525 642.1,506.8L642.2,375.55C642.125,373.85 640.725,372.45 639.05,372.45L639.1,372.45ZM740.55,368.05C719.5,368.05 705.2,377.45 705.2,377.45L705.2,311.3C705.2,309.575 703.8,308.2 702.15,308.2L664.675,308.2C663,308.2 661.625,309.6 661.625,311.3L661.525,506.675C661.525,508.4 662.925,509.775 664.6,509.775L690.7,509.775C691.85,509.775 692.725,509.175 693.4,508.125C694.075,507.075 694.975,499.1 694.975,499.1C694.975,499.1 710.25,513.625 739.25,513.625C773.3,513.625 792.8,496.35 792.8,436.1C792.8,375.925 761.625,368.05 740.575,368.05L740.55,368.05ZM725.95,478.15C713.1,477.75 704.4,471.925 704.4,471.925L704.4,410.025C704.4,410.025 713,404.75 723.575,403.8C736.925,402.625 749.825,406.65 749.825,438.475C749.75,472.025 743.95,478.65 725.975,478.125L725.95,478.15ZM333.1,477.425C331.45,477.425 327.275,478.075 322.975,478.075C309.25,478.075 304.55,471.675 304.55,463.4L304.55,408.45L332.575,408.45C334.3,408.45 335.65,407.075 335.65,405.325L335.65,375.225C335.675,373.5 334.3,372.1 332.575,372.1L304.55,372.1L304.5,335.1C304.5,333.7 303.75,333 302.15,333L264,333C262.525,333 261.7,333.65 261.7,335.075L261.7,373.3C261.7,373.3 242.575,377.925 241.275,378.3C239.975,378.675 239.075,379.875 239.075,381.275L239.075,405.325C239.075,407.05 240.475,408.45 242.15,408.45L261.7,408.45L261.7,466.25C261.7,509.175 291.825,513.4 312.15,513.4C321.425,513.4 332.525,510.375 334.375,509.725C335.5,509.325 336.125,508.175 336.125,506.95L336.15,480.525C336.15,478.8 334.7,477.4 333.1,477.4L333.1,477.425Z" style="fill:rgb(8,216,90);fill-rule:nonzero;stroke:black;stroke-width:1px;"/>
    </g>
</svg>
