<?xml version="1.0" encoding="UTF-8" standalone="no"?>
<!DOCTYPE svg PUBLIC "-//W3C//DTD SVG 1.1//EN" "http://www.w3.org/Graphics/SVG/1.1/DTD/svg11.dtd">
<svg width="100%" height="100%" viewBox="0 0 800 800" version="1.1" xmlns="http://www.w3.org/2000/svg" xmlns:xlink="http://www.w3.org/1999/xlink" xml:space="preserve" xmlns:serif="http://www.serif.com/" style="fill-rule:evenodd;clip-rule:evenodd;stroke-linejoin:round;stroke-miterlimit:2;">
    <g id="c133de6af664cd4f011a55de6b000d0b">
        <path d="M169.795,0.783L205.783,0.783L205.783,36.339L238.703,36.339L238.703,0.783L274.694,0.783L274.694,108.453L238.706,108.453L238.706,72.397L205.786,72.397L205.786,108.453L169.798,108.453L169.798,0.783L169.795,0.783ZM322.02,36.489L290.338,36.489L290.338,0.783L389.703,0.783L389.703,36.489L358.008,36.489L358.008,108.453L322.02,108.453L322.02,36.489ZM405.472,0.783L443.003,0.783L466.083,38.616L489.144,0.783L526.68,0.783L526.68,108.453L490.839,108.453L490.839,55.088L466.081,93.369L465.464,93.369L440.689,55.088L440.689,108.453L405.472,108.453L405.472,0.783ZM544.594,0.783L580.591,0.783L580.591,72.866L631.202,72.866L631.202,108.453L544.594,108.453L544.594,0.783ZM117.167,157.697L168.645,735.092L399.652,799.217L631.298,735L682.831,157.695L117.167,157.695L117.167,157.697ZM575.452,294.719L572.228,330.62L570.813,346.539L299.822,346.539L306.294,419.05L564.366,419.05L562.638,438.069L545.997,624.506L544.931,636.463L400,676.633L400,676.645L399.675,676.738L254.614,636.466L244.691,525.277L315.78,525.277L320.822,581.755L399.688,603.055L399.753,603.034L399.753,603.028L478.739,581.716L486.953,489.87L241.528,489.87L224.123,294.719L222.428,275.723L577.147,275.723L575.452,294.719Z" style="fill:rgb(8,216,90);fill-rule:nonzero;stroke:rgb(8,216,90);stroke-width:1px;"/>
    </g>
</svg>
