<?xml version="1.0" encoding="UTF-8" standalone="no"?>
<!DOCTYPE svg PUBLIC "-//W3C//DTD SVG 1.1//EN" "http://www.w3.org/Graphics/SVG/1.1/DTD/svg11.dtd">
<svg width="100%" height="100%" viewBox="0 0 800 800" version="1.1" xmlns="http://www.w3.org/2000/svg" xmlns:xlink="http://www.w3.org/1999/xlink" xml:space="preserve" xmlns:serif="http://www.serif.com/" style="fill-rule:evenodd;clip-rule:evenodd;stroke-linejoin:round;stroke-miterlimit:2;">
    <g>
        <rect x="0" y="0" width="800" height="800" style="fill:rgb(247,223,30);fill-rule:nonzero;"/>
        <path d="M210.349,668.538L271.571,631.488C283.382,652.429 294.126,670.147 319.897,670.147C344.601,670.147 360.175,660.484 360.175,622.897L360.175,367.277L435.355,367.277L435.355,623.959C435.355,701.826 389.712,737.269 323.12,737.269C262.979,737.269 228.069,706.121 210.348,668.532" style="fill-rule:nonzero;"/>
        <path d="M476.19,660.483L537.404,625.04C553.519,651.356 574.462,670.687 611.514,670.687C642.664,670.687 662.528,655.112 662.528,633.632C662.528,607.855 642.123,598.725 607.754,583.694L588.964,575.633C534.723,552.546 498.742,523.548 498.742,462.328C498.742,405.942 541.702,362.979 608.83,362.979C656.625,362.979 690.993,379.628 715.693,423.126L657.158,460.715C644.269,437.625 630.311,428.498 608.832,428.498C586.814,428.498 572.851,442.46 572.851,460.715C572.851,483.27 586.814,492.401 619.031,506.364L637.825,514.419C701.73,541.808 737.71,569.73 737.71,632.557C737.71,700.225 684.547,737.275 613.126,737.275C543.316,737.275 498.206,703.982 476.192,660.483" style="fill-rule:nonzero;"/>
    </g>
</svg>
