<?xml version="1.0" encoding="UTF-8" standalone="no"?>
<!DOCTYPE svg PUBLIC "-//W3C//DTD SVG 1.1//EN" "http://www.w3.org/Graphics/SVG/1.1/DTD/svg11.dtd">
<svg width="100%" height="100%" viewBox="0 0 800 800" version="1.1" xmlns="http://www.w3.org/2000/svg" xmlns:xlink="http://www.w3.org/1999/xlink" xml:space="preserve" xmlns:serif="http://www.serif.com/" style="fill-rule:evenodd;clip-rule:evenodd;stroke-linejoin:round;stroke-miterlimit:2;">
    <path d="M733.333,125L66.667,125C53,125 41.667,113.667 41.667,100C41.667,86.333 53,75 66.667,75L733.333,75C747,75 758.333,86.333 758.333,100C758.333,113.667 747,125 733.333,125Z" style="fill:white;fill-rule:nonzero;stroke:white;stroke-width:1px;"/>
    <path d="M366.667,325L66.667,325C53,325 41.667,313.667 41.667,300C41.667,286.333 53,275 66.667,275L366.667,275C380.333,275 391.667,286.333 391.667,300C391.667,313.667 380.333,325 366.667,325Z" style="fill:white;fill-rule:nonzero;stroke:white;stroke-width:1px;"/>
    <path d="M266.667,525L66.667,525C53,525 41.667,513.667 41.667,500C41.667,486.333 53,475 66.667,475L266.667,475C280.333,475 291.667,486.333 291.667,500C291.667,513.667 280.333,525 266.667,525Z" style="fill:white;fill-rule:nonzero;stroke:white;stroke-width:1px;"/>
    <path d="M200,725L66.667,725C53,725 41.667,713.667 41.667,700C41.667,686.333 53,675 66.667,675L200,675C213.667,675 225,686.333 225,700C225,713.667 213.667,725 200,725Z" style="fill:white;fill-rule:nonzero;stroke:white;stroke-width:1px;"/>
    <path d="M728.673,255.942C709.007,240.942 682.007,237.942 650.34,246.609L505.34,285.942C466.34,296.608 442.34,328.275 442.34,368.277L442.34,575.943C428.34,567.943 412.007,562.943 394.673,562.943C341.007,562.943 297.005,606.61 297.005,660.61C297.005,714.277 340.673,758.277 394.673,758.277C448.673,758.277 492.34,714.61 492.34,660.61L492.34,472.277L708.34,413.277L708.34,527.61C694.34,519.61 678.007,514.61 660.673,514.61C607.007,514.61 563.007,558.277 563.007,612.277C563.007,665.943 606.673,709.943 660.673,709.943C714.673,709.943 758.34,666.277 758.34,612.277L758.34,328.942C758.34,295.275 748.34,270.608 728.673,255.942ZM394.673,708.277C368.34,708.277 347.007,686.943 347.007,660.61C347.007,634.277 368.34,612.943 394.673,612.943C421.007,612.943 442.34,634.277 442.34,660.61C442.34,686.943 421.007,708.277 394.673,708.277ZM660.673,659.943C634.34,659.943 613.007,638.61 613.007,612.277C613.007,585.943 634.34,564.61 660.673,564.61C687.007,564.61 708.34,585.943 708.34,612.277C708.34,638.61 687.007,659.943 660.673,659.943Z" style="fill:white;fill-rule:nonzero;stroke:white;stroke-width:1px;"/>
</svg>
