<?xml version="1.0" encoding="UTF-8" standalone="no"?>
<!DOCTYPE svg PUBLIC "-//W3C//DTD SVG 1.1//EN" "http://www.w3.org/Graphics/SVG/1.1/DTD/svg11.dtd">
<svg width="100%" height="100%" viewBox="0 0 800 800" version="1.1" xmlns="http://www.w3.org/2000/svg" xmlns:xlink="http://www.w3.org/1999/xlink" xml:space="preserve" xmlns:serif="http://www.serif.com/" style="fill-rule:evenodd;clip-rule:evenodd;stroke-linejoin:round;stroke-miterlimit:2;">
    <g id="_5151e0c8492e5103c096af88a51f0aa3" serif:id="5151e0c8492e5103c096af88a51f0aa3">
        <path d="M181.077,237.32L143.494,215.8C141.131,214.408 139.664,211.895 139.664,209.169L139.664,163.378C139.664,160.652 138.214,158.122 135.847,156.766L119.848,147.548C118.689,146.855 117.347,146.514 116.048,146.514C114.714,146.514 113.409,146.855 112.219,147.548L96.209,156.766C93.841,158.123 92.397,160.653 92.397,163.378L92.397,209.169C92.397,211.895 90.947,214.391 88.575,215.8L50.98,237.32C49.813,238.036 48.363,238.036 47.184,237.32C45.988,236.663 45.278,235.392 45.278,234.028L45.139,136.008C45.139,133.259 46.605,130.734 48.963,129.372L112.217,92.969C113.303,92.339 114.498,92.016 115.705,91.964L116.364,91.964C117.577,92.016 118.772,92.339 119.847,92.969L183.097,129.373C185.472,130.738 186.914,133.261 186.914,136.009L186.792,234.03C186.792,235.394 186.059,236.664 184.892,237.322C183.728,238.038 182.255,238.038 181.077,237.32ZM424.402,211.047L424.402,137.995C424.402,135.264 425.858,132.745 428.219,131.383L491.505,94.862C493.861,93.498 496.772,93.494 499.141,94.856L514.978,103.987C515.809,104.467 516.833,104.467 517.658,103.987C518.478,103.508 518.992,102.625 518.992,101.672L518.992,4.598C518.992,3.241 519.709,1.994 520.875,1.302C522.048,0.619 523.492,0.608 524.677,1.267L562.33,22.28C564.755,23.625 566.252,26.184 566.252,28.952L566.252,211.047C566.252,213.78 564.795,216.297 562.428,217.666L499.144,254.209C496.781,255.584 493.864,255.584 491.495,254.209L428.222,217.666C425.858,216.297 424.402,213.778 424.402,211.047ZM471.533,187.048C471.533,187.73 471.895,188.359 472.484,188.7L494.212,201.222C494.802,201.556 495.53,201.556 496.119,201.222L517.847,188.7C518.436,188.359 518.798,187.73 518.798,187.048L518.798,161.958C518.798,161.277 518.436,160.641 517.847,160.306L496.125,147.755C495.53,147.414 494.802,147.414 494.206,147.755L472.478,160.306C471.895,160.641 471.533,161.277 471.533,161.958L471.533,187.048ZM751.055,130.389L688.188,93.881C685.823,92.506 682.902,92.502 680.534,93.875L617.273,130.389C614.911,131.753 613.456,134.277 613.456,137.008L613.456,210.036C613.456,212.784 614.934,215.314 617.316,216.678L680.178,252.492C682.492,253.822 685.341,253.827 687.669,252.539L725.688,231.406C726.894,230.73 727.645,229.466 727.652,228.091C727.663,226.716 726.93,225.439 725.733,224.752L662.08,188.214C660.895,187.533 660.161,186.267 660.161,184.898L660.161,162.016C660.161,160.652 660.889,159.388 662.073,158.7L681.884,147.275C683.063,146.598 684.519,146.598 685.695,147.275L705.519,158.7C706.703,159.388 707.431,160.653 707.431,162.016L707.431,180.023C707.431,181.388 708.164,182.652 709.348,183.333C710.533,184.009 711.987,184.009 713.172,183.327L751.055,161.303C753.417,159.934 754.862,157.417 754.862,154.691L754.862,136.997C754.861,134.27 753.417,131.752 751.055,130.389ZM238.723,216.314L301.973,252.856C304.342,254.22 307.252,254.22 309.62,252.856L372.894,216.314C375.256,214.945 376.711,212.427 376.711,209.695L376.711,136.616C376.711,133.889 375.255,131.359 372.888,129.997L309.62,93.489C307.252,92.12 304.342,92.12 301.978,93.489L238.723,129.997C236.355,131.361 234.9,133.891 234.9,136.616L234.9,209.695C234.9,212.428 236.356,214.945 238.723,216.314ZM615.539,384.88L420.486,272.161C408.247,265.184 391.833,265.184 379.491,272.161L184.431,384.88C171.794,392.158 163.973,405.811 163.973,420.434L163.973,645.548C163.973,660.162 171.794,673.833 184.431,681.122L235.575,710.584C260.358,722.783 269.242,722.783 280.511,722.783C317.194,722.783 338.273,700.592 338.273,661.894L338.273,439.645C338.273,436.502 335.709,434.025 332.62,434.025L307.883,434.025C304.741,434.025 302.217,436.502 302.217,439.645L302.217,661.894C302.217,679.048 284.463,696.12 255.473,681.642L202.038,650.753C200.155,649.731 198.958,647.709 198.958,645.548L198.958,420.434C198.958,418.298 200.155,416.172 202.048,415.086L396.992,302.563C398.798,301.511 401.202,301.511 402.998,302.563L597.983,415.056C599.847,416.172 601.009,418.227 601.009,420.433L601.009,645.547C601.009,647.708 599.848,649.775 598.03,650.814L402.966,763.408C401.297,764.423 398.738,764.423 396.923,763.408L346.889,733.697C345.4,732.842 343.494,732.519 342.048,733.339C328.198,741.2 325.577,742.233 312.603,746.739C309.392,747.859 304.65,749.783 314.366,755.206L379.494,793.742C385.731,797.356 392.83,799.217 399.952,799.217C407.177,799.217 414.252,797.358 420.491,793.742L615.544,681.12C628.175,673.769 636.034,660.161 636.034,645.547L636.034,420.434C636.031,405.811 628.17,392.186 615.539,384.88ZM467.888,624.075C409.68,624.075 396.875,609.452 392.584,580.503C392.087,577.413 389.441,575.108 386.266,575.108L357.825,575.108C354.302,575.108 351.473,577.927 351.473,581.467C351.473,618.506 371.636,662.691 467.889,662.691C537.584,662.691 577.548,635.255 577.548,587.33C577.548,539.806 545.434,527.169 477.847,518.217C409.536,509.178 402.595,504.517 402.595,488.519C402.595,475.338 408.475,457.711 459.07,457.711C504.255,457.711 520.911,467.447 527.761,497.892C528.363,500.763 530.973,502.855 533.93,502.855L562.478,502.855C564.252,502.855 565.933,502.092 567.133,500.833C568.339,499.498 568.981,497.759 568.813,495.934C564.395,443.467 529.527,419.019 459.069,419.019C396.35,419.019 358.947,445.488 358.947,489.852C358.947,537.997 396.164,551.311 456.342,557.248C528.361,564.319 533.952,574.836 533.952,589.009C533.952,613.598 514.227,624.075 467.888,624.075ZM684.887,157.881C684.438,157.616 683.878,157.616 683.427,157.881L671.291,164.887C670.834,165.148 670.556,165.633 670.556,166.153L670.556,180.183C670.556,180.703 670.834,181.189 671.291,181.448L683.427,188.455C683.877,188.716 684.436,188.716 684.887,188.455L697.033,181.448C697.491,181.189 697.767,180.703 697.767,180.183L697.767,166.153C697.767,165.633 697.491,165.148 697.033,164.887L684.887,157.881Z" style="fill:rgb(8,216,90);stroke:rgb(8,216,90);stroke-width:1px;"/>
    </g>
</svg>
