<?xml version="1.0" encoding="UTF-8" standalone="no"?>
<!DOCTYPE svg PUBLIC "-//W3C//DTD SVG 1.1//EN" "http://www.w3.org/Graphics/SVG/1.1/DTD/svg11.dtd">
<svg width="100%" height="100%" viewBox="0 0 800 800" version="1.1" xmlns="http://www.w3.org/2000/svg" xmlns:xlink="http://www.w3.org/1999/xlink" xml:space="preserve" xmlns:serif="http://www.serif.com/" style="fill-rule:evenodd;clip-rule:evenodd;stroke-linejoin:round;stroke-miterlimit:2;">
    <path d="M641.656,282.375C633.667,279.646 625.62,277.104 617.516,274.75C618.859,269.281 620.099,263.781 621.234,258.25C639.516,169.344 627.563,97.719 586.766,74.141C547.703,51.516 483.641,75.094 419.016,131.469C412.661,137.031 406.438,142.76 400.344,148.656C396.281,144.74 392.115,140.906 387.844,137.156C320.109,76.875 252.219,51.484 211.469,75.141C172.406,97.813 160.797,165.141 177.25,249.406C178.896,257.74 180.745,266.036 182.797,274.297C173.188,277.031 163.906,279.953 155.031,283.047C75.719,310.781 25,354.266 25,399.359C25,445.953 79.438,492.672 162.141,521C168.849,523.281 175.62,525.401 182.453,527.359C180.234,536.203 178.271,545.146 176.563,554.188C160.938,637 173.125,702.734 212.109,725.266C252.375,748.531 319.922,724.625 385.766,666.969C390.974,662.406 396.182,657.589 401.391,652.516C407.974,658.88 414.745,665.057 421.703,671.047C485.453,726.016 548.406,748.219 587.328,725.625C627.563,702.281 640.641,631.656 623.656,545.734C622.354,539.172 620.854,532.474 619.156,525.641C623.906,524.234 628.557,522.781 633.109,521.281C719.047,492.734 775.031,446.578 775.031,399.406C775,354.094 722.656,310.328 641.656,282.375ZM440.094,155.688C495.453,107.391 547.203,88.328 570.797,101.953C595.906,116.469 605.672,175 589.891,251.766C588.849,256.766 587.724,261.75 586.516,266.719C553.479,259.204 519.977,253.901 486.234,250.844C466.915,223.014 445.736,196.521 422.844,171.547C428.448,166.109 434.188,160.823 440.063,155.688L440.094,155.688ZM246.453,437.891C253.234,451.016 260.323,463.979 267.719,476.781C275.25,489.844 283.099,502.714 291.266,515.391C268.048,512.866 244.976,509.148 222.141,504.25C228.766,482.813 236.922,460.547 246.453,437.891ZM246.453,362.375C237.078,340.203 229.141,318.391 222.625,297.328C244.031,292.531 266.844,288.609 290.625,285.641C282.656,298.078 274.99,310.698 267.625,323.5C260.26,336.302 253.188,349.26 246.406,362.375L246.453,362.375ZM263.484,400.141C273.359,379.547 283.995,359.349 295.391,339.547C306.776,319.755 318.896,300.417 331.75,281.531C354.063,279.844 376.938,278.953 400.047,278.953C423.156,278.953 446.172,279.844 468.469,281.547C481.188,300.391 493.234,319.661 504.609,339.359C515.984,359.057 526.76,379.161 536.938,399.672C526.896,420.339 516.146,440.62 504.688,460.516C493.323,480.307 481.344,499.703 468.75,518.703C446.484,520.266 423.438,521.125 400,521.125C376.563,521.125 353.953,520.391 332.094,518.969C319.146,500.021 306.927,480.599 295.438,460.703C283.948,440.807 273.281,420.62 263.438,400.141L263.484,400.141ZM532.422,476.563C539.974,463.458 547.224,450.182 554.172,436.734C563.696,458.33 572.103,480.4 579.359,502.859C556.256,508.062 532.896,512.052 509.375,514.812C517.313,502.219 524.995,489.469 532.422,476.563ZM553.859,362.391C546.943,349.214 539.75,336.193 532.281,323.328C524.99,310.641 517.391,298.109 509.484,285.734C533.406,288.766 556.359,292.797 577.875,297.719C570.957,319.664 562.942,341.249 553.859,362.391ZM400.359,194.5C415.962,211.548 430.694,229.373 444.5,247.906C414.969,246.5 385.417,246.5 355.844,247.906C370.422,228.625 385.344,210.734 400.359,194.5ZM227.594,102.906C252.688,88.344 308.172,109.156 366.656,161.141C370.391,164.469 374.156,167.953 377.906,171.563C354.896,196.533 333.568,223.003 314.062,250.797C280.395,253.83 246.959,259.05 213.969,266.422C212.063,258.755 210.344,251.036 208.812,243.266C194.672,171.031 204.031,116.578 227.594,102.906ZM191.016,496.422C184.766,494.641 178.594,492.708 172.5,490.625C135.938,478.125 105.734,461.813 85,444.047C66.438,428.125 57.031,412.234 57.031,399.359C57.031,372 97.75,337.094 165.656,313.422C174.187,310.453 182.792,307.74 191.469,305.281C201.554,337.692 213.768,369.402 228.031,400.203C213.598,431.43 201.233,463.573 191.016,496.422ZM364.656,642.781C335.547,668.281 306.391,686.359 280.688,695.469C257.594,703.641 239.203,703.875 228.094,697.453C204.437,683.781 194.594,630.984 208.016,560.172C209.609,551.839 211.432,543.505 213.484,535.172C246.805,542.35 280.576,547.252 314.563,549.844C334.259,577.783 355.763,604.402 378.938,629.531C374.281,634.109 369.516,638.516 364.656,642.781ZM401.25,606.5C386.063,590.078 370.906,571.906 356.125,552.375C370.49,552.938 385.115,553.219 400,553.219C415.281,553.219 430.406,552.891 445.313,552.219C431.557,571.049 416.85,589.166 401.25,606.5ZM595.813,651.172C591.344,675.297 582.359,691.391 571.25,697.828C547.609,711.547 497.062,693.719 442.562,646.703C436.312,641.328 430.062,635.563 423.703,629.516C446.426,604.289 467.427,577.562 486.562,549.516C520.737,546.62 554.672,541.373 588.125,533.813C589.656,540 591.01,546.062 592.188,552C599.703,589.969 600.781,624.313 595.813,651.172ZM623,490.797C618.906,492.156 614.688,493.469 610.406,494.75C599.916,462.187 587.226,430.374 572.422,399.531C586.67,369.1 598.864,337.749 608.922,305.687C616.594,307.922 624.047,310.266 631.219,312.75C700.625,336.687 742.969,372.125 742.969,399.359C742.969,428.422 697.234,466.141 623,490.797Z" style="fill:rgb(8,216,90);fill-rule:nonzero;stroke:rgb(8,216,90);stroke-width:1px;"/>
    <path d="M400,466.484C400.073,466.485 400.146,466.485 400.219,466.485C437.077,466.485 467.406,436.155 467.406,399.297C467.406,362.439 437.077,332.11 400.219,332.11C363.361,332.11 333.031,362.439 333.031,399.297C333.031,399.344 333.031,399.391 333.031,399.438C333.031,436.189 363.249,466.442 400,466.484Z" style="fill:rgb(8,216,90);fill-rule:nonzero;stroke:rgb(8,216,90);stroke-width:1px;"/>
</svg>
