<!DOCTYPE svg PUBLIC "-//W3C//DTD SVG 1.1//EN" "http://www.w3.org/Graphics/SVG/1.1/DTD/svg11.dtd">
<!-- Uploaded to: SVG Repo, www.svgrepo.com, Transformed by: SVG Repo Mixer Tools -->
<svg version="1.1" id="_x32_" xmlns="http://www.w3.org/2000/svg" xmlns:xlink="http://www.w3.org/1999/xlink" width="800px" height="800px" viewBox="0 0 512 512" xml:space="preserve" fill="#dbdbdb" stroke="#dbdbdb">
<g id="SVGRepo_bgCarrier" stroke-width="0"/>
<g id="SVGRepo_tracerCarrier" stroke-linecap="round" stroke-linejoin="round"/>
<g id="SVGRepo_iconCarrier"> <style type="text/css">  .st0{fill:#000000;}  </style> <g> <path class="st0" d="M284.435,227.569c16.625,16.625,43.594,16.625,60.219,0s16.625-43.594,0-60.219s-43.594-16.625-60.219,0 C267.794,183.976,267.794,210.944,284.435,227.569z"/> <path class="st0" d="M358.028,406.147c-5.531-7.813-22.359-6.266-43.563,2.453l-14.813-48.438 c55.063-36,110.484-89.641,148.999-146.656c12.438-18.453,23.219-36.891,31.984-54.781 c25.266-50.891,45.359-119.734,18.844-146.219c-26.5-26.5-95.328-6.406-146.171,18.813c-18.016,8.859-36.469,19.656-54.844,32.031 c-57,38.5-110.625,93.938-146.625,149l-48.438-14.813c8.719-21.203,10.266-38.031,2.438-43.563 c-12.781-9.063-45.719,15.453-73.531,54.734c-27.828,39.297-40.016,78.5-27.219,87.563c9.406,6.656,29.719-4.891,50.875-27.078 l54.906,30.844c-11.188,45.484,1.844,71.344,15.797,85.297c13.953,13.969,39.797,26.984,85.297,15.797l30.844,54.891 c-22.188,21.156-33.734,41.484-27.078,50.891c9.063,12.797,48.266,0.609,87.563-27.219 C342.591,451.882,367.091,418.944,358.028,406.147z M316.606,90.241c17.141-11.563,34.313-21.594,51.078-29.828 c0.703-0.344,1.344-0.625,2.031-0.984c11.031,15.453,23.703,30.531,38.015,44.844c14.313,14.297,29.375,26.969,44.812,38 c-0.344,0.719-0.641,1.375-0.984,2.094c-8.172,16.609-18.188,33.781-29.796,51c-51.734,76.563-135.25,146.484-203.078,170 c-3.313,1.141-6.813,2.234-10.406,3.219c-11.797-9.453-23.234-19.609-34.234-30.625c-11-10.984-21.172-22.453-30.641-34.234 c1-3.578,2.094-7.078,3.234-10.391C170.153,225.491,240.044,141.976,316.606,90.241z M78.638,241.522 c3.469-4.906,6.703-9.813,9.672-14.672l46.375,14.172c-5.063,9.344-9.563,18.609-13.328,27.672l-44.375-24.906 C77.528,243.022,78.091,242.304,78.638,241.522z M243.31,390.663c9.063-3.781,18.313-8.281,27.672-13.328l14.172,46.344 c-4.859,2.984-9.766,6.219-14.672,9.688c-0.781,0.547-1.5,1.109-2.266,1.656L243.31,390.663z"/> </g> </g>
</svg>