<?xml version="1.0" encoding="UTF-8" standalone="no"?>
<!DOCTYPE svg PUBLIC "-//W3C//DTD SVG 1.1//EN" "http://www.w3.org/Graphics/SVG/1.1/DTD/svg11.dtd">
<svg width="100%" height="100%" viewBox="0 0 800 800" version="1.1" xmlns="http://www.w3.org/2000/svg" xmlns:xlink="http://www.w3.org/1999/xlink" xml:space="preserve" xmlns:serif="http://www.serif.com/" style="fill-rule:evenodd;clip-rule:evenodd;stroke-linejoin:round;stroke-miterlimit:2;">
    <g>
        <path d="M786.424,379.402C759.785,265.024 687.235,208.1 604.409,227.305C497.457,252.105 532.999,434.201 333.807,439.992C321.223,440.358 315.825,424.132 326.222,417.032C368.792,387.954 427.647,330.23 389.546,249.08C337.279,137.756 227.628,126.063 90.152,209.697C75.068,218.874 70.729,238.831 80.679,253.417L93.126,271.669C101.859,284.474 118.758,288.87 132.566,281.826C175.968,259.688 266.861,221.533 299.556,270.51C326.664,311.116 297.118,363.31 214.777,385.271C200.547,389.067 191.138,402.61 192.253,417.296L197.075,480.73C198.147,494.855 208.722,506.354 222.68,508.773C265.147,516.135 347.335,542.877 319.389,638.855C285.95,753.7 87.16,676.436 14.683,547.076C10.621,539.828 -0.439,543.898 1.201,552.043C19.254,641.721 75.432,800 247.033,800C487.146,800 407.084,514.292 407.084,514.292C407.084,514.292 528.997,484.523 595.639,375.38C634.928,311.036 723.154,348.716 724.997,455.949C727.391,595.445 604.945,653.333 545.312,605.627C535.081,597.444 526.96,586.303 520.865,575.774C516.781,568.722 505.964,571.811 506.303,579.957C508.49,632.552 524.749,725.506 612,729.673C771.825,737.306 826.311,550.656 786.424,379.402Z" style="fill:white;fill-rule:nonzero;stroke:white;stroke-width:1px;"/>
        <path d="M480.496,112.951C487.103,119.515 497.84,119.286 504.162,112.444L543.661,69.71C549.487,63.407 549.487,53.686 543.661,47.383L504.746,5.282C498.206,-1.791 487.014,-1.756 480.52,5.36L439.634,50.168C433.694,56.679 433.942,66.712 440.194,72.921L480.496,112.951Z" style="fill:white;fill-rule:nonzero;stroke:white;stroke-width:1px;"/>
        <path d="M693.002,149.667C699.973,144.027 701.091,133.834 695.564,126.774L657.134,77.702C651.259,70.201 640.272,69.285 633.174,75.642C537.535,161.306 458.43,144.908 406.446,112.568C391.257,103.119 374.155,121.481 384.45,136.116C494.149,292.075 648.76,185.468 693.002,149.667Z" style="fill:white;fill-rule:nonzero;stroke:white;stroke-width:1px;"/>
    </g>
</svg>
